<svg width="167" height="45" viewBox="0 0 167 45" fill="none" xmlns="http://www.w3.org/2000/svg">
<path d="M32.9514 2.5H2.15816C0.947489 2.5 0 3.46 0 4.68667V40.3133C0 41.4867 0.947489 42.5 2.15816 42.5H32.9514C34.1095 42.5 35.1096 41.54 35.1096 40.3133V4.63333C35.1096 3.46 34.1621 2.5 32.9514 2.5ZM31.8987 37.06C31.8987 38.2333 30.9512 39.1933 29.7405 39.1933H5.31645C4.15841 39.1933 3.21093 38.2333 3.21093 37.06V7.88667C3.21093 6.71333 4.15841 5.7 5.31645 5.7H29.372C30.5301 5.7 31.5302 6.66 31.5302 7.88667V13.06C31.5302 14.2333 30.5827 15.2467 29.372 15.2467H14.2123V16.9533H20.9499C22.108 16.9533 23.0555 17.9133 23.0555 19.0867V25.22C23.0555 25.8067 22.8449 26.3933 22.4765 26.7667C22.108 27.14 21.529 27.3533 20.9499 27.3533H14.2123V29.38H29.7405C30.8985 29.38 31.8987 30.34 31.8987 31.5667V37.06Z" fill="#2D8B5A"/>
<path fill-rule="evenodd" clip-rule="evenodd" d="M29.7932 31.6729V37.1662H5.36912V7.8862H29.4247V12.9529H12.0015V19.0329H21.0026V25.1662L12.0015 25.0595V31.6729H29.7932Z" fill="#359D67"/>
<path d="M29.7932 31.6729V37.1662H5.36912V7.8862H29.4247V12.9529H12.0015V19.0329H21.0026V25.1662L12.0015 25.0595V31.6729H29.7932Z" fill="#359D67"/>
<path fill-rule="evenodd" clip-rule="evenodd" d="M29.7932 31.6729V37.1662H5.36912V7.8862H29.4247V12.9529H12.0015V19.0329H21.0026V25.1662L12.0015 25.0595V31.6729H29.7932Z" fill="#2D8B5A"/>
<path d="M60.1336 25.832C59.9096 27.12 59.6856 27.708 59.2096 28.408C58.3136 29.724 56.6336 30.48 54.6736 30.48C50.7536 30.48 48.2896 27.288 48.2896 22.164C48.2896 17.012 50.6976 13.904 54.6736 13.904C56.4096 13.904 57.8096 14.492 58.7616 15.64C59.3216 16.284 59.5736 16.816 59.9656 18.048L63.8576 17.152C63.5216 16.088 63.3256 15.584 62.9896 14.996C62.2896 13.764 61.2816 12.728 60.0216 11.944C58.4816 11.02 56.8296 10.6 54.6456 10.6C51.8456 10.6 49.3256 11.552 47.6456 13.26C45.5456 15.36 44.3696 18.608 44.3696 22.304C44.3696 25.888 45.4616 29.052 47.4216 31.096C49.1296 32.86 51.5656 33.784 54.6176 33.784C57.9776 33.784 60.6656 32.692 62.2616 30.732C63.1016 29.64 63.6056 28.548 64.1376 26.532L60.1336 25.832ZM74.4687 33.868C79.4527 33.868 82.7287 30.452 82.7287 25.272C82.7287 20.092 79.5087 16.788 74.4407 16.788C69.3447 16.788 66.0967 20.12 66.0967 25.328C66.0967 30.564 69.3447 33.868 74.4687 33.868ZM74.4407 19.7C77.4087 19.7 79.1167 21.772 79.1167 25.384C79.1167 28.8 77.3247 30.9 74.4127 30.9C71.5007 30.9 69.7087 28.772 69.7087 25.328C69.7087 21.828 71.5007 19.7 74.4407 19.7ZM92.9465 33.868C97.9305 33.868 101.207 30.452 101.207 25.272C101.207 20.092 97.9865 16.788 92.9185 16.788C87.8225 16.788 84.5745 20.12 84.5745 25.328C84.5745 30.564 87.8225 33.868 92.9465 33.868ZM92.9185 19.7C95.8865 19.7 97.5945 21.772 97.5945 25.384C97.5945 28.8 95.8025 30.9 92.8905 30.9C89.9785 30.9 88.1865 28.772 88.1865 25.328C88.1865 21.828 89.9785 19.7 92.9185 19.7ZM103.78 11.048C103.92 12.112 103.976 13.036 103.976 14.716V29.696C103.976 31.236 103.92 32.188 103.78 33.336H107.728C107.56 32.244 107.532 31.572 107.532 29.752V27.932L109.828 25.748L112.852 30.172C114.028 31.88 114.364 32.44 114.7 33.336H119.684C119.04 32.692 119.04 32.692 117.136 30.088L112.404 23.62L116.38 19.84C117.584 18.692 117.584 18.692 119.18 17.264H113.944C113.496 17.964 113.02 18.524 111.732 19.756L107.532 23.928V14.716C107.532 13.092 107.588 12.112 107.728 11.048H103.78ZM121.71 11.048V14.604H125.826V11.048H121.71ZM121.71 17.264C121.878 18.412 121.934 19.364 121.934 20.904V29.696C121.934 31.096 121.878 32.076 121.71 33.336H125.798C125.658 32.16 125.602 31.208 125.602 29.668V20.932C125.602 19.224 125.658 18.3 125.798 17.264H121.71ZM133.064 33.336C132.896 32.132 132.84 31.068 132.84 29.696V24.04C134.072 21.268 135.724 19.868 137.74 19.868C138.804 19.868 139.644 20.288 140.092 21.016C140.428 21.548 140.568 22.304 140.568 23.48V29.696C140.568 31.124 140.512 32.076 140.372 33.336H144.432C144.264 32.3 144.208 31.236 144.208 29.696V22.976C144.208 21.1 143.928 19.98 143.256 19.056C142.248 17.684 140.652 16.984 138.496 16.984C135.976 16.984 134.492 17.768 132.784 19.952C132.84 19.252 132.84 19.168 132.84 18.748V17.264H129.032C129.2 18.412 129.256 19.364 129.256 20.904V29.696C129.256 31.264 129.2 32.132 129.032 33.336H133.064ZM147.255 35.912C149.159 38.068 151.007 38.824 154.283 38.824C157.167 38.824 159.491 38.18 160.891 37.032C162.515 35.66 163.243 33.504 163.243 30.144V20.764C163.243 19.252 163.299 18.468 163.439 17.264H159.687V18.552C159.687 18.86 159.687 18.916 159.743 19.476C158.539 17.768 156.887 17.012 154.395 17.012C149.859 17.012 146.919 20.148 146.919 24.992C146.919 29.78 149.775 32.832 154.227 32.832C156.663 32.832 158.315 32.048 159.715 30.284C159.659 32.188 159.463 33.168 158.987 34.008C158.203 35.352 156.551 36.108 154.395 36.108C152.379 36.108 151.147 35.492 150.055 33.98L147.255 35.912ZM150.587 25.076C150.587 21.744 152.323 19.644 155.123 19.644C156.131 19.644 157.055 20.008 157.839 20.652C158.959 21.604 159.519 23.004 159.519 24.796C159.519 26.084 159.267 27.12 158.735 27.988C157.951 29.304 156.383 30.2 154.843 30.2C153.779 30.2 152.575 29.696 151.875 28.94C151.035 28.1 150.587 26.728 150.587 25.076Z" fill="#222222"/>
</svg>
